<?xml version="1.0" encoding="utf-8"?>
<!-- Generator: Adobe Illustrator 19.0.0, SVG Export Plug-In . SVG Version: 6.00 Build 0)  -->
<svg version="1.1" id="Warstwa_1" xmlns="http://www.w3.org/2000/svg" xmlns:xlink="http://www.w3.org/1999/xlink" x="0px" y="0px"
	 viewBox="0 0 297.5 337.3" style="enable-background:new 0 0 297.5 337.3;" xml:space="preserve">
<style type="text/css">
	.st0{fill:#1673B6;}
	.st1{fill:#35A9DB;}
	.st2{fill:#FFFFFF;}
	.st3{fill:#EBEBEB;}
</style>
<polygon id="XMLID_22_" class="st0" points="27.3,303.6 0.3,0 297.7,0 270.6,303.6 148.8,337.3 "/>
<polygon id="XMLID_21_" class="st1" points="149,311.5 247.4,284.2 270.6,24.8 149,24.8 "/>
<g id="XMLID_15_">
	<polygon id="XMLID_20_" class="st2" points="149,134.8 198.3,134.8 201.7,96.7 149,96.7 149,59.5 149.1,59.5 242.4,59.5 
		241.5,69.4 232.3,172.1 149,172.1 	"/>
	<polygon id="XMLID_19_" class="st3" points="149.2,231.5 149.1,231.6 107.6,220.4 104.9,190.7 84.8,190.7 67.6,190.7 72.8,249.2 
		149,270.3 149.2,270.3 	"/>
	<polygon id="XMLID_18_" class="st2" points="195.1,170.5 190.6,220.4 149.1,231.6 149.1,270.3 225.4,249.2 226,242.9 232.5,170.5 	
		"/>
	<polygon id="XMLID_17_" class="st3" points="149.1,59.5 149.1,82.6 149.1,96.6 149.1,96.7 59.3,96.7 59.3,96.7 59.2,96.7 
		58.4,88.3 56.7,69.4 55.8,59.5 	"/>
	<polygon id="XMLID_16_" class="st3" points="149,134.8 149,158 149,172 149,172.1 108.2,172.1 108.2,172.1 108,172.1 107.3,163.7 
		105.6,144.8 104.7,134.8 	"/>
</g>
</svg>
