<?xml version="1.0" encoding="utf-8"?>
<!-- Generator: Adobe Illustrator 19.0.0, SVG Export Plug-In . SVG Version: 6.00 Build 0)  -->
<svg version="1.1" id="Warstwa_1" xmlns="http://www.w3.org/2000/svg" xmlns:xlink="http://www.w3.org/1999/xlink" x="0px" y="0px"
	 viewBox="0 0 297.5 337.3" style="enable-background:new 0 0 297.5 337.3;" xml:space="preserve">
<style type="text/css">
	.st0{fill:#E45126;}
	.st1{fill:#F1682B;}
	.st2{fill:#EBEBEB;}
	.st3{fill:#FFFFFF;}
</style>
<g>
	<polygon class="st0" points="27.1,303.6 0,0 297.5,0 270.4,303.6 148.5,337.3 	"/>
	<polygon class="st1" points="148.7,311.5 247.2,284.2 270.3,24.8 148.7,24.8 	"/>
	<polygon class="st2" points="148.7,137.4 99.4,137.4 96,99.3 148.7,99.3 148.7,62.1 148.6,62.1 55.3,62.1 56.2,72.1 65.4,174.7 
		148.7,174.7 	"/>
	<polygon class="st2" points="148.7,234.1 148.6,234.2 107.1,223 104.4,193.3 84.3,193.3 67.1,193.3 72.3,251.8 148.6,272.9 
		148.7,272.9 	"/>
	<polygon class="st3" points="148.6,137.4 148.6,174.7 194.4,174.7 190.1,223 148.6,234.2 148.6,272.9 224.9,251.8 225.5,245.5 
		234.2,147.4 235.2,137.4 225.1,137.4 	"/>
	<polygon class="st3" points="148.6,62.1 148.6,85.2 148.6,99.2 148.6,99.3 238.4,99.3 238.4,99.3 238.5,99.3 239.3,90.9 241,72.1 
		241.9,62.1 	"/>
</g>
</svg>
