<?xml version="1.0" encoding="utf-8"?>
<!-- Generator: Adobe Illustrator 19.0.0, SVG Export Plug-In . SVG Version: 6.00 Build 0)  -->
<svg version="1.1" id="Warstwa_1" xmlns="http://www.w3.org/2000/svg" xmlns:xlink="http://www.w3.org/1999/xlink" x="0px" y="0px"
	 viewBox="0 0 297.5 337.3" style="enable-background:new 0 0 297.5 337.3;" xml:space="preserve">
<style type="text/css">
	.st0{fill:#E4A227;}
	.st1{fill:#F0BF26;}
	.st2{fill:#EBEBEB;}
	.st3{fill:#FFFFFF;}
</style>
<g id="XMLID_15_">
	<polygon id="XMLID_26_" class="st0" points="27.6,303.6 0.5,0 297.9,0 270.8,303.6 149,337.3 	"/>
	<polygon id="XMLID_25_" class="st1" points="149,311.2 247.4,283.9 270.6,24.4 149,24.4 	"/>
	<polygon id="XMLID_21_" class="st2" points="148.9,233.8 148.7,233.8 107.3,222.6 104.6,192.9 84.5,192.9 67.2,192.9 72.5,251.4 
		148.7,272.6 148.9,272.5 	"/>
	<polygon id="XMLID_20_" class="st2" points="153.9,174.3 153.9,137.1 108.1,137.1 113.4,78.6 154,77.5 153.9,38.8 79.8,38.8 
		77,66.3 68.3,164.3 67.4,174.3 77.4,174.3 	"/>
	<polygon id="XMLID_19_" class="st3" points="153.7,77.6 153.8,77.5 194.5,80 198,118.4 218.1,118.4 235.3,118.4 228.8,46.5 
		153.8,38.8 153.7,38.9 	"/>
	<polyline id="XMLID_18_" class="st3" points="231.5,77.7 228.3,38.8 149.7,38.8 149.7,63 149.7,77.6 149.7,77.7 231.5,77.7 	"/>
	<polygon id="XMLID_17_" class="st3" points="148.8,137.1 148.8,174.3 194.6,174.3 190.3,222.6 148.8,233.8 148.8,272.6 
		225.1,251.4 225.7,245.1 234.4,147.1 235.3,137.1 225.3,137.1 	"/>
	<path id="XMLID_16_" class="st3" d="M226.7,76.1"/>
</g>
</svg>
