<?xml version="1.0" encoding="utf-8"?>
<!-- Generator: Adobe Illustrator 19.0.0, SVG Export Plug-In . SVG Version: 6.00 Build 0)  -->
<svg version="1.1" id="Warstwa_1" xmlns="http://www.w3.org/2000/svg" xmlns:xlink="http://www.w3.org/1999/xlink" x="0px" y="0px"
	 viewBox="0 0 280 280" style="enable-background:new 0 0 280 280;" xml:space="preserve">
<style type="text/css">
	.st0{fill:#1FD0F9;}
	.st1{fill:#2C2A4C;}
	.st2{fill:#87D0F9;}
</style>
<g>
	<rect x="0" y="0" class="st0" width="280" height="280"/>
	<rect x="12.5" y="12.5" class="st1" width="255" height="255"/>
	<g>
		<path class="st2" d="M70.2,200.4v-122c0,0,33.8-2.6,45,0s12.6,3.6,17.8,8.3c5.2,4.7,8.9,10.3,10.9,18.3s0,21.7,0,21.7
			s-1.3,7.5-5.8,13.8s-11.4,11.6-22.6,13.8c-17.5,3.5-27.5,1-27.5,1v45.1 M87,92.3l0,49.6c15.5,1.9,26.9-1.2,33.6-7.1
			c6.6-6.8,9-12.7,8.3-21.5c-1.6-10.4-8.5-18.9-19.7-20.9C101.8,91.6,93.8,91.5,87,92.3z"/>
		<path class="st2" d="M149.2,198.4l4-14c13.7,4.7,25.9,5.5,35.5,0c4.7-4.7,4.8-9.1,3-14.8c-0.9-2.2-2.9-4.9-9.5-6.5
			c-17.8-5.1-28.8-11.8-30-20.7c-1.4-9,0.4-17,6.8-23.8c7.1-5.7,15.6-7,24.5-7c12.6,0.7,18.9,2.2,23.8,3.9l-2.9,12.3
			c-7.6-2.5-15.1-3.7-22.5-3.2c-4.2,0.4-7.8,1.6-10.7,3.8c-4.2,4.3-3.5,8.7,0,13c1.9,2.8,11,6.4,24.1,10.4
			c7.8,2.8,14.4,7.5,14.8,23.8c-0.7,10.8-6.5,18.3-16.8,22.7C180.2,204.6,165.3,203.7,149.2,198.4z"/>
	</g>
</g>
</svg>
